# xmcd
# 
# Track frame offsets:
#     150
#     19110
#     35917
#     51521
#     72449
#     92332
#     111864
#     131264
#     150115
#     171310
#     186080
# 
# Disc length: 2674
# 
# Revision: 1
# Processed by: cddbd v1.5.2PL0 Copyright (c) Steve Scherf et al.
# Submitted via: fre:ac v1.0.17
# 
DISCID=8d0a700b
DTITLE=Heather Greene - Sweet Otherwise
DYEAR=2008
DGENRE=Blues
TTITLE0=Hey, Wait
TTITLE1=Why, Don't You Say Yes?
TTITLE2=Let It Slide
TTITLE3=What I Mean
TTITLE4=Get Up And Go
TTITLE5=(you Are) So Nice To Listen To
TTITLE6=Moon Hangs Fire
TTITLE7=Space
TTITLE8=In The Game
TTITLE9=Come And Play
TTITLE10=Something New
EXTD=
EXTT0=
EXTT1=
EXTT2=
EXTT3=
EXTT4=
EXTT5=
EXTT6=
EXTT7=
EXTT8=
EXTT9=
EXTT10=
PLAYORDER=
